<svg xmlns="http://www.w3.org/2000/svg" xmlns:xlink="http://www.w3.org/1999/xlink" width="500" zoomAndPan="magnify" viewBox="110 90 150 100" height="260" preserveAspectRatio="xMidYMid meet" version="1.0"><defs><g/></defs><g fill="#8a2be2" fill-opacity="1"><g transform="translate(9.980677, 151.833813)"><g><path d="M 25.109375 11.390625 C 24.347656 11.554688 23.460938 11.828125 22.453125 12.203125 C 21.441406 12.585938 20.523438 13.039062 19.703125 13.5625 C 18.878906 14.09375 18.320312 14.632812 18.03125 15.1875 C 17.519531 16.113281 17.554688 16.878906 18.140625 17.484375 C 18.734375 18.097656 19.578125 18.5625 20.671875 18.875 C 21.773438 19.195312 22.769531 19.359375 23.65625 19.359375 L 25.109375 19.359375 Z M 27.828125 18.96875 C 28.671875 18.96875 29.785156 18.753906 31.171875 18.328125 C 32.566406 17.910156 34.078125 17.363281 35.703125 16.6875 C 37.328125 16.019531 38.894531 15.316406 40.40625 14.578125 C 41.925781 13.835938 43.210938 13.128906 44.265625 12.453125 C 45.328125 11.785156 46.003906 11.257812 46.296875 10.875 C 45.703125 10.875 45.035156 10.789062 44.296875 10.625 C 43.566406 10.457031 42.90625 10.332031 42.3125 10.25 C 41.257812 10.082031 40.28125 9.960938 39.375 9.890625 C 38.46875 9.828125 37.59375 9.796875 36.75 9.796875 C 35.613281 9.796875 34.453125 9.859375 33.265625 9.984375 C 32.085938 10.117188 30.78125 10.289062 29.34375 10.5 C 28.675781 10.582031 28.265625 10.707031 28.109375 10.875 C 27.960938 11.039062 27.929688 11.289062 28.015625 11.625 C 28.097656 11.96875 28.097656 12.5 28.015625 13.21875 Z M 48.890625 9.234375 C 48.890625 9.234375 49.066406 9.09375 49.421875 8.8125 C 49.785156 8.539062 50.164062 8.257812 50.5625 7.96875 C 50.96875 7.675781 51.210938 7.507812 51.296875 7.46875 L 54.453125 4.75 C 54.710938 4.53125 54.90625 4.367188 55.03125 4.265625 C 55.15625 4.160156 55.34375 4.023438 55.59375 3.859375 C 55.9375 3.609375 56.410156 3.164062 57.015625 2.53125 C 57.628906 1.894531 58.285156 1.1875 58.984375 0.40625 C 59.679688 -0.375 60.332031 -1.109375 60.9375 -1.796875 C 61.550781 -2.492188 61.984375 -3.015625 62.234375 -3.359375 C 62.398438 -3.566406 62.546875 -3.742188 62.671875 -3.890625 C 62.804688 -4.035156 62.957031 -4.210938 63.125 -4.421875 C 63.96875 -5.523438 64.800781 -6.71875 65.625 -8 C 66.445312 -9.289062 67.195312 -10.523438 67.875 -11.703125 C 69.007812 -13.679688 70.019531 -15.957031 70.90625 -18.53125 C 71.789062 -21.101562 72.398438 -23.75 72.734375 -26.46875 C 73.078125 -29.1875 73.046875 -31.820312 72.640625 -34.375 C 72.242188 -36.925781 71.335938 -39.210938 69.921875 -41.234375 C 68.503906 -43.265625 66.46875 -44.828125 63.8125 -45.921875 C 62.507812 -46.515625 61.160156 -46.914062 59.765625 -47.125 C 58.378906 -47.332031 56.988281 -47.4375 55.59375 -47.4375 C 53.65625 -47.4375 51.75 -47.265625 49.875 -46.921875 C 48 -46.585938 46.195312 -46.171875 44.46875 -45.671875 L 38.140625 -43.453125 C 36.828125 -42.859375 35.863281 -42.425781 35.25 -42.15625 C 34.644531 -41.882812 34.25 -41.585938 34.0625 -41.265625 C 33.875 -40.953125 33.691406 -40.394531 33.515625 -39.59375 C 33.054688 -37.0625 32.613281 -34.726562 32.1875 -32.59375 C 31.769531 -30.46875 31.347656 -28.097656 30.921875 -25.484375 C 30.546875 -23.171875 30.265625 -21.007812 30.078125 -19 C 29.890625 -17 29.644531 -14.945312 29.34375 -12.84375 L 28.46875 0.375 C 28.507812 2.65625 28.453125 4.382812 28.296875 5.5625 C 28.148438 6.75 28.054688 7.539062 28.015625 7.9375 C 27.972656 8.332031 28.101562 8.53125 28.40625 8.53125 C 28.570312 8.53125 28.78125 8.5 29.03125 8.4375 C 29.28125 8.375 29.617188 8.320312 30.046875 8.28125 C 31.140625 8.113281 32.191406 8 33.203125 7.9375 C 34.210938 7.875 35.179688 7.84375 36.109375 7.84375 C 37.796875 7.84375 39.453125 7.925781 41.078125 8.09375 C 42.703125 8.257812 44.441406 8.515625 46.296875 8.859375 C 46.765625 8.941406 47.175781 9.023438 47.53125 9.109375 C 47.882812 9.191406 48.335938 9.234375 48.890625 9.234375 Z M 34.78125 -44.71875 C 35.25 -44.71875 35.671875 -44.820312 36.046875 -45.03125 C 36.429688 -45.238281 36.832031 -45.429688 37.25 -45.609375 L 44.46875 -48.328125 C 46.195312 -48.828125 48 -49.234375 49.875 -49.546875 C 51.75 -49.867188 53.632812 -50.03125 55.53125 -50.03125 C 58.269531 -50.03125 60.945312 -49.617188 63.5625 -48.796875 C 66.175781 -47.972656 68.453125 -46.570312 70.390625 -44.59375 C 72.296875 -42.695312 73.671875 -40.535156 74.515625 -38.109375 C 75.359375 -35.679688 75.789062 -33.148438 75.8125 -30.515625 C 75.832031 -27.878906 75.546875 -25.316406 74.953125 -22.828125 C 73.898438 -18.359375 72.390625 -14.34375 70.421875 -10.78125 C 68.460938 -7.21875 66.050781 -3.75 63.1875 -0.375 L 61.296875 1.703125 C 60.992188 2.085938 60.503906 2.625 59.828125 3.3125 C 59.160156 4.007812 58.488281 4.6875 57.8125 5.34375 C 57.132812 6 56.628906 6.453125 56.296875 6.703125 C 55.910156 6.992188 55.535156 7.285156 55.171875 7.578125 C 54.816406 7.878906 54.453125 8.195312 54.078125 8.53125 C 53.523438 8.914062 53.082031 9.234375 52.75 9.484375 C 52.414062 9.734375 52.1875 10.070312 52.0625 10.5 C 52.726562 10.625 53.359375 10.914062 53.953125 11.375 C 54.546875 11.84375 54.914062 12.347656 55.0625 12.890625 C 55.207031 13.441406 54.941406 13.953125 54.265625 14.421875 C 53.847656 14.128906 53.582031 13.84375 53.46875 13.5625 C 53.363281 13.289062 53.019531 13.007812 52.4375 12.71875 C 51.34375 12.164062 50.5625 11.890625 50.09375 11.890625 C 49.675781 11.890625 49.285156 12.023438 48.921875 12.296875 C 48.566406 12.578125 48.03125 12.945312 47.3125 13.40625 C 46.132812 14.164062 44.773438 14.96875 43.234375 15.8125 C 41.691406 16.65625 40.117188 17.4375 38.515625 18.15625 C 36.910156 18.875 35.4375 19.441406 34.09375 19.859375 C 33.664062 20.023438 33.050781 20.222656 32.25 20.453125 C 31.457031 20.691406 30.648438 20.894531 29.828125 21.0625 C 29.003906 21.226562 28.316406 21.332031 27.765625 21.375 L 28.015625 26.4375 C 28.054688 26.644531 27.972656 26.84375 27.765625 27.03125 C 27.554688 27.226562 27.300781 27.328125 27 27.328125 C 26.75 27.328125 26.5 27.21875 26.25 27 C 26 26.789062 25.765625 26.414062 25.546875 25.875 C 25.421875 25.40625 25.347656 25 25.328125 24.65625 C 25.304688 24.320312 25.273438 23.90625 25.234375 23.40625 C 25.148438 22.601562 25.054688 22.082031 24.953125 21.84375 C 24.847656 21.613281 24.671875 21.5 24.421875 21.5 C 24.242188 21.5 24.0625 21.507812 23.875 21.53125 C 23.6875 21.550781 23.445312 21.5625 23.15625 21.5625 C 22.226562 21.5625 21.171875 21.375 19.984375 21 C 18.804688 20.625 17.785156 20.066406 16.921875 19.328125 C 16.054688 18.585938 15.625 17.671875 15.625 16.578125 C 15.625 15.179688 16.003906 14.0625 16.765625 13.21875 C 17.523438 12.375 18.453125 11.707031 19.546875 11.21875 C 20.640625 10.738281 21.710938 10.328125 22.765625 9.984375 C 23.816406 9.648438 24.660156 9.335938 25.296875 9.046875 C 25.296875 7.867188 25.328125 6.769531 25.390625 5.75 C 25.453125 4.738281 25.484375 3.6875 25.484375 2.59375 C 25.484375 1.582031 25.554688 0.507812 25.703125 -0.625 C 25.859375 -1.769531 25.9375 -2.847656 25.9375 -3.859375 C 25.9375 -4.867188 25.988281 -6.195312 26.09375 -7.84375 C 26.195312 -9.488281 26.34375 -11.289062 26.53125 -13.25 C 26.71875 -15.207031 26.914062 -17.164062 27.125 -19.125 C 27.34375 -21.09375 27.554688 -22.882812 27.765625 -24.5 C 27.972656 -26.125 28.164062 -27.40625 28.34375 -28.34375 L 30.609375 -39.46875 C 29.890625 -39.09375 28.972656 -38.523438 27.859375 -37.765625 C 26.742188 -37.003906 25.570312 -36.160156 24.34375 -35.234375 C 23.125 -34.304688 21.976562 -33.390625 20.90625 -32.484375 C 19.832031 -31.578125 18.976562 -30.804688 18.34375 -30.171875 L 14.171875 -25.75 C 12.859375 -24.269531 11.429688 -22.472656 9.890625 -20.359375 C 8.359375 -18.253906 6.894531 -16.019531 5.5 -13.65625 C 4.113281 -11.300781 2.96875 -8.972656 2.0625 -6.671875 C 1.15625 -4.367188 0.703125 -2.269531 0.703125 -0.375 C 0.703125 0.632812 0.828125 1.347656 1.078125 1.765625 C 1.328125 2.191406 1.617188 2.457031 1.953125 2.5625 C 2.296875 2.664062 2.601562 2.75 2.875 2.8125 C 3.144531 2.875 3.328125 3.097656 3.421875 3.484375 C 3.546875 4.066406 3.207031 4.359375 2.40625 4.359375 C 1.726562 4.359375 0.945312 3.988281 0.0625 3.25 C -0.820312 2.519531 -1.265625 1.3125 -1.265625 -0.375 C -1.265625 -1.8125 -1.019531 -3.363281 -0.53125 -5.03125 C -0.0507812 -6.695312 0.554688 -8.363281 1.296875 -10.03125 C 2.035156 -11.695312 2.828125 -13.273438 3.671875 -14.765625 C 4.515625 -16.265625 5.296875 -17.539062 6.015625 -18.59375 C 7.398438 -20.707031 8.734375 -22.550781 10.015625 -24.125 C 11.304688 -25.707031 12.644531 -27.234375 14.03125 -28.703125 C 15.425781 -30.179688 16.988281 -31.785156 18.71875 -33.515625 C 20.320312 -34.910156 21.945312 -36.257812 23.59375 -37.5625 C 25.238281 -38.875 26.96875 -40.078125 28.78125 -41.171875 C 29.414062 -41.515625 30.003906 -41.84375 30.546875 -42.15625 C 31.097656 -42.46875 31.457031 -42.835938 31.625 -43.265625 C 31.914062 -43.859375 32.15625 -44.425781 32.34375 -44.96875 C 32.539062 -45.519531 33.019531 -45.878906 33.78125 -46.046875 C 34.195312 -45.835938 34.46875 -45.703125 34.59375 -45.640625 C 34.71875 -45.578125 34.78125 -45.269531 34.78125 -44.71875 Z M 34.78125 -44.71875 "/></g></g></g><g fill="#8a2be2" fill-opacity="1"><g transform="translate(83.793817, 151.833813)"><g><path d="M 1.828125 25.359375 C 3.054688 25.359375 4.15625 25 5.125 24.28125 C 6.09375 23.570312 6.945312 22.707031 7.6875 21.6875 C 8.425781 20.675781 9.046875 19.726562 9.546875 18.84375 C 10.015625 17.957031 10.53125 16.691406 11.09375 15.046875 C 11.664062 13.410156 12.203125 11.628906 12.703125 9.703125 C 13.210938 7.785156 13.644531 5.972656 14 4.265625 C 14.363281 2.554688 14.585938 1.21875 14.671875 0.25 C 14.171875 0.550781 13.707031 0.867188 13.28125 1.203125 L 7.078125 6.703125 C 6.910156 6.867188 6.742188 7.066406 6.578125 7.296875 C 6.410156 7.535156 6.203125 7.757812 5.953125 7.96875 C 4.929688 8.976562 4.019531 9.988281 3.21875 11 C 2.425781 12.019531 1.628906 13.140625 0.828125 14.359375 C 0.441406 14.910156 0.0390625 15.601562 -0.375 16.4375 C -0.800781 17.28125 -1.148438 18.175781 -1.421875 19.125 C -1.691406 20.082031 -1.796875 21.023438 -1.734375 21.953125 C -1.671875 22.878906 -1.328125 23.675781 -0.703125 24.34375 C -0.148438 25.019531 0.691406 25.359375 1.828125 25.359375 Z M 3.28125 -5.5625 C 3.914062 -5.90625 4.65625 -6.570312 5.5 -7.5625 C 6.34375 -8.550781 7.226562 -9.726562 8.15625 -11.09375 C 9.082031 -12.46875 9.988281 -13.878906 10.875 -15.328125 C 11.757812 -16.785156 12.570312 -18.132812 13.3125 -19.375 C 14.050781 -20.625 14.628906 -21.628906 15.046875 -22.390625 C 15.554688 -23.234375 15.90625 -23.789062 16.09375 -24.0625 C 16.28125 -24.34375 16.710938 -24.484375 17.390625 -24.484375 C 17.734375 -24.484375 17.988281 -24.238281 18.15625 -23.75 C 18.320312 -23.257812 18.445312 -22.664062 18.53125 -21.96875 C 18.613281 -21.28125 18.65625 -20.617188 18.65625 -19.984375 C 18.65625 -19.347656 18.65625 -18.863281 18.65625 -18.53125 L 18.65625 -13.65625 C 18.65625 -12.601562 18.601562 -11.484375 18.5 -10.296875 C 18.394531 -9.117188 18.300781 -8.023438 18.21875 -7.015625 C 18.132812 -6.003906 18.09375 -5.207031 18.09375 -4.625 L 27.140625 -9.859375 C 27.347656 -9.992188 27.785156 -10.289062 28.453125 -10.75 C 29.128906 -11.21875 29.703125 -11.453125 30.171875 -11.453125 C 30.546875 -11.453125 30.734375 -11.21875 30.734375 -10.75 C 30.734375 -10.457031 30.382812 -10.054688 29.6875 -9.546875 C 29 -9.046875 28.265625 -8.582031 27.484375 -8.15625 C 26.703125 -7.738281 26.1875 -7.445312 25.9375 -7.28125 C 24.625 -6.5625 23.320312 -5.789062 22.03125 -4.96875 C 20.75 -4.144531 19.5 -3.3125 18.28125 -2.46875 C 17.988281 -2.257812 17.828125 -2.078125 17.796875 -1.921875 C 17.773438 -1.773438 17.722656 -1.472656 17.640625 -1.015625 C 17.347656 1.054688 16.925781 3.398438 16.375 6.015625 C 15.832031 8.628906 15.160156 11.175781 14.359375 13.65625 C 13.554688 16.144531 12.628906 18.234375 11.578125 19.921875 C 10.984375 21.054688 10.191406 22.179688 9.203125 23.296875 C 8.210938 24.421875 7.101562 25.351562 5.875 26.09375 C 4.65625 26.832031 3.347656 27.203125 1.953125 27.203125 C 0.398438 27.203125 -0.898438 26.671875 -1.953125 25.609375 C -3.015625 24.554688 -3.546875 23.082031 -3.546875 21.1875 C -3.546875 19.789062 -3.1875 18.289062 -2.46875 16.6875 C -1.75 15.09375 -0.789062 13.460938 0.40625 11.796875 C 1.613281 10.128906 2.910156 8.535156 4.296875 7.015625 C 5.691406 5.503906 7.082031 4.125 8.46875 2.875 C 9.863281 1.632812 11.109375 0.613281 12.203125 -0.1875 C 12.421875 -0.394531 12.613281 -0.550781 12.78125 -0.65625 C 12.945312 -0.769531 13.15625 -0.910156 13.40625 -1.078125 C 14 -1.578125 14.429688 -1.921875 14.703125 -2.109375 C 14.972656 -2.304688 15.132812 -2.675781 15.1875 -3.21875 C 15.4375 -5.375 15.664062 -7.359375 15.875 -9.171875 C 16.082031 -10.984375 16.238281 -12.847656 16.34375 -14.765625 C 16.457031 -16.679688 16.515625 -18.84375 16.515625 -21.25 C 16.378906 -21.164062 16.023438 -20.671875 15.453125 -19.765625 C 14.890625 -18.859375 14.25 -17.800781 13.53125 -16.59375 C 12.8125 -15.394531 12.132812 -14.28125 11.5 -13.25 C 10.875 -12.21875 10.4375 -11.507812 10.1875 -11.125 C 9.550781 -10.113281 8.78125 -8.921875 7.875 -7.546875 C 6.96875 -6.179688 6.09375 -5.097656 5.25 -4.296875 C 4.445312 -3.578125 3.707031 -3.21875 3.03125 -3.21875 C 2.363281 -3.21875 1.796875 -3.546875 1.328125 -4.203125 C 0.859375 -4.859375 0.625 -5.734375 0.625 -6.828125 C 0.625 -7.503906 0.707031 -8.347656 0.875 -9.359375 C 1.050781 -10.367188 1.304688 -11.367188 1.640625 -12.359375 C 1.984375 -13.359375 2.375 -14.191406 2.8125 -14.859375 C 3.257812 -15.535156 3.734375 -15.875 4.234375 -15.875 C 4.953125 -15.875 5.3125 -15.617188 5.3125 -15.109375 C 5.3125 -14.609375 5.140625 -13.90625 4.796875 -13 C 4.460938 -12.09375 4.125 -11.003906 3.78125 -9.734375 C 3.445312 -8.472656 3.28125 -7.082031 3.28125 -5.5625 Z M 3.28125 -5.5625 "/></g></g></g><g fill="#8a2be2" fill-opacity="1"><g transform="translate(112.256468, 151.833813)"><g><path d="M -17.765625 -28.203125 C -17.765625 -28.753906 -17.257812 -29.332031 -16.25 -29.9375 C -15.238281 -30.550781 -13.960938 -31.15625 -12.421875 -31.75 C -10.890625 -32.34375 -9.269531 -32.898438 -7.5625 -33.421875 C -5.851562 -33.953125 -4.28125 -34.40625 -2.84375 -34.78125 C -1.414062 -35.164062 -0.34375 -35.460938 0.375 -35.671875 C 1.257812 -35.921875 1.878906 -36.066406 2.234375 -36.109375 C 2.597656 -36.148438 2.832031 -36.285156 2.9375 -36.515625 C 3.039062 -36.753906 3.15625 -37.234375 3.28125 -37.953125 C 3.625 -39.679688 4.015625 -40.867188 4.453125 -41.515625 C 4.898438 -42.171875 5.332031 -42.5 5.75 -42.5 C 6.09375 -42.5 6.378906 -42.316406 6.609375 -41.953125 C 6.835938 -41.597656 6.953125 -41.171875 6.953125 -40.671875 C 6.953125 -40.285156 6.929688 -40.125 6.890625 -40.1875 C 6.847656 -40.257812 6.847656 -40.125 6.890625 -39.78125 C 6.890625 -39.695312 6.898438 -39.59375 6.921875 -39.46875 C 6.941406 -39.34375 6.953125 -39.175781 6.953125 -38.96875 C 6.953125 -38.414062 6.847656 -38.140625 6.640625 -38.140625 C 6.429688 -38.140625 6.21875 -38.109375 6 -38.046875 C 5.789062 -37.984375 5.6875 -37.613281 5.6875 -36.9375 C 6.195312 -36.9375 6.753906 -37.007812 7.359375 -37.15625 C 7.972656 -37.300781 8.515625 -37.394531 8.984375 -37.4375 C 10.835938 -37.78125 12.691406 -38.085938 14.546875 -38.359375 C 16.398438 -38.628906 18.296875 -38.765625 20.234375 -38.765625 C 21.253906 -38.765625 21.992188 -38.550781 22.453125 -38.125 C 22.921875 -37.707031 23.085938 -37.289062 22.953125 -36.875 C 22.828125 -36.457031 22.363281 -36.25 21.5625 -36.25 C 21.476562 -36.582031 21.425781 -36.738281 21.40625 -36.71875 C 21.382812 -36.695312 21.1875 -36.726562 20.8125 -36.8125 C 20.644531 -36.851562 20.304688 -36.875 19.796875 -36.875 C 18.910156 -36.875 17.738281 -36.78125 16.28125 -36.59375 C 14.832031 -36.40625 13.328125 -36.179688 11.765625 -35.921875 C 10.203125 -35.671875 8.804688 -35.425781 7.578125 -35.1875 C 6.359375 -34.957031 5.5625 -34.800781 5.1875 -34.71875 L 3.921875 -21.765625 C 3.878906 -21.460938 3.867188 -21.140625 3.890625 -20.796875 C 3.910156 -20.460938 3.921875 -20.128906 3.921875 -19.796875 C 3.921875 -19.378906 3.890625 -19.101562 3.828125 -18.96875 C 3.765625 -18.84375 3.734375 -18.550781 3.734375 -18.09375 C 3.734375 -17.164062 3.753906 -16.097656 3.796875 -14.890625 C 3.835938 -13.691406 3.816406 -12.753906 3.734375 -12.078125 C 3.691406 -11.703125 3.660156 -10.953125 3.640625 -9.828125 C 3.617188 -8.710938 3.597656 -7.414062 3.578125 -5.9375 C 3.554688 -4.46875 3.546875 -2.984375 3.546875 -1.484375 C 3.546875 0.015625 3.546875 1.375 3.546875 2.59375 C 3.546875 3.8125 3.566406 4.695312 3.609375 5.25 C 3.609375 5.71875 3.660156 6.425781 3.765625 7.375 C 3.867188 8.320312 3.890625 9.171875 3.828125 9.921875 C 3.765625 10.679688 3.457031 11.0625 2.90625 11.0625 C 2.101562 11.0625 1.617188 10.617188 1.453125 9.734375 C 1.285156 8.847656 1.203125 8.03125 1.203125 7.28125 C 1.078125 5.757812 1.003906 3.984375 0.984375 1.953125 C 0.960938 -0.0664062 0.960938 -2.085938 0.984375 -4.109375 C 1.003906 -6.128906 1.015625 -7.898438 1.015625 -9.421875 L 1.203125 -12.390625 C 1.203125 -12.984375 1.203125 -13.890625 1.203125 -15.109375 C 1.203125 -16.335938 1.222656 -17.632812 1.265625 -19 C 1.304688 -20.375 1.347656 -21.628906 1.390625 -22.765625 C 1.429688 -23.910156 1.492188 -24.710938 1.578125 -25.171875 C 1.660156 -25.597656 1.710938 -26.101562 1.734375 -26.6875 C 1.753906 -27.28125 1.785156 -27.785156 1.828125 -28.203125 L 2.40625 -34.09375 C 2.238281 -34.050781 1.867188 -33.96875 1.296875 -33.84375 C 0.722656 -33.71875 0.269531 -33.609375 -0.0625 -33.515625 C -2.125 -33.015625 -4.09375 -32.476562 -5.96875 -31.90625 C -7.851562 -31.34375 -9.785156 -30.679688 -11.765625 -29.921875 C -12.140625 -29.753906 -12.484375 -29.570312 -12.796875 -29.375 C -13.117188 -29.1875 -13.472656 -29.007812 -13.859375 -28.84375 C -14.359375 -28.632812 -14.679688 -28.484375 -14.828125 -28.390625 C -14.972656 -28.304688 -15.046875 -28.203125 -15.046875 -28.078125 C -15.046875 -27.953125 -15.15625 -27.679688 -15.375 -27.265625 C -15.539062 -27.222656 -15.707031 -27.191406 -15.875 -27.171875 C -16.039062 -27.148438 -16.226562 -27.140625 -16.4375 -27.140625 C -16.78125 -27.140625 -17.085938 -27.210938 -17.359375 -27.359375 C -17.628906 -27.503906 -17.765625 -27.785156 -17.765625 -28.203125 Z M -17.765625 -28.203125 "/></g></g></g><g fill="#8a2be2" fill-opacity="1"><g transform="translate(119.593501, 151.833813)"><g><path d="M 3.421875 -1.828125 C 3.421875 -2.460938 3.628906 -2.9375 4.046875 -3.25 C 4.472656 -3.570312 4.894531 -3.734375 5.3125 -3.734375 C 5.78125 -3.734375 6.171875 -3.582031 6.484375 -3.28125 C 6.796875 -2.988281 6.910156 -2.546875 6.828125 -1.953125 C 6.785156 -1.367188 6.582031 -0.925781 6.21875 -0.625 C 5.863281 -0.332031 5.476562 -0.1875 5.0625 -0.1875 C 4.632812 -0.1875 4.253906 -0.332031 3.921875 -0.625 C 3.585938 -0.925781 3.421875 -1.328125 3.421875 -1.828125 Z M 3.421875 -1.828125 "/></g></g></g><g fill="#8a2be2" fill-opacity="1"><g transform="translate(129.840061, 151.833813)"><g/></g></g><g fill="#8a2be2" fill-opacity="1"><g transform="translate(146.221894, 151.833813)"><g><path d="M 28.90625 -12.59375 C 29.832031 -12.800781 30.757812 -13.125 31.6875 -13.5625 C 32.613281 -14.007812 33.601562 -14.234375 34.65625 -14.234375 C 34.738281 -14.234375 34.832031 -14.222656 34.9375 -14.203125 C 35.050781 -14.179688 35.148438 -14.171875 35.234375 -14.171875 C 37.085938 -14.046875 38.550781 -13.460938 39.625 -12.421875 C 40.695312 -11.390625 41.472656 -10.082031 41.953125 -8.5 C 42.441406 -6.925781 42.75 -5.234375 42.875 -3.421875 C 43.007812 -1.609375 43.078125 0.160156 43.078125 1.890625 C 43.453125 1.804688 43.910156 1.5625 44.453125 1.15625 C 45.003906 0.757812 45.554688 0.332031 46.109375 -0.125 C 46.660156 -0.59375 47.082031 -0.929688 47.375 -1.140625 L 50.40625 -3.671875 C 51.207031 -4.347656 52.144531 -5.234375 53.21875 -6.328125 C 54.300781 -7.421875 55.21875 -8.367188 55.96875 -9.171875 C 56.5625 -9.804688 56.960938 -10.300781 57.171875 -10.65625 C 57.390625 -11.007812 57.898438 -11.1875 58.703125 -11.1875 C 58.785156 -11.1875 58.859375 -11.1875 58.921875 -11.1875 C 58.984375 -11.1875 59.035156 -11.1875 59.078125 -11.1875 C 59.203125 -10.6875 59.265625 -10.335938 59.265625 -10.140625 C 59.265625 -9.953125 59.097656 -9.648438 58.765625 -9.234375 C 58.546875 -8.941406 58.351562 -8.675781 58.1875 -8.4375 C 58.019531 -8.207031 57.789062 -7.988281 57.5 -7.78125 C 57.28125 -7.488281 57.109375 -7.234375 56.984375 -7.015625 C 56.859375 -6.804688 56.628906 -6.578125 56.296875 -6.328125 C 55.953125 -5.859375 55.550781 -5.457031 55.09375 -5.125 L 49.78125 -0.1875 C 49.351562 0.226562 48.894531 0.625 48.40625 1 C 47.925781 1.382812 47.4375 1.769531 46.9375 2.15625 C 45.789062 3 44.929688 3.597656 44.359375 3.953125 C 43.796875 4.304688 43.394531 4.597656 43.15625 4.828125 C 42.925781 5.066406 42.78125 5.382812 42.71875 5.78125 C 42.65625 6.1875 42.519531 6.851562 42.3125 7.78125 C 41.507812 12.25 40.109375 16.515625 38.109375 20.578125 C 36.109375 24.648438 33.484375 28.3125 30.234375 31.5625 C 27.910156 33.882812 25.609375 35.5625 23.328125 36.59375 C 21.054688 37.625 18.972656 38.140625 17.078125 38.140625 C 15.015625 38.140625 13.296875 37.597656 11.921875 36.515625 C 10.546875 35.441406 9.722656 33.976562 9.453125 32.125 C 9.179688 30.269531 9.632812 28.1875 10.8125 25.875 C 11.65625 24.269531 12.707031 22.757812 13.96875 21.34375 C 15.238281 19.9375 16.570312 18.703125 17.96875 17.640625 C 21.125 15.160156 24.226562 13.054688 27.28125 11.328125 C 30.34375 9.597656 33.5625 7.757812 36.9375 5.8125 C 37.90625 5.269531 38.640625 4.859375 39.140625 4.578125 C 39.648438 4.304688 39.988281 3.898438 40.15625 3.359375 L 40.15625 3.15625 C 40.375 1.9375 40.484375 0.492188 40.484375 -1.171875 C 40.484375 -2.835938 40.300781 -4.46875 39.9375 -6.0625 C 39.582031 -7.664062 38.984375 -9.003906 38.140625 -10.078125 C 37.296875 -11.160156 36.132812 -11.703125 34.65625 -11.703125 C 33.988281 -11.703125 33.273438 -11.578125 32.515625 -11.328125 C 30.785156 -10.773438 29.46875 -10.203125 28.5625 -9.609375 C 27.65625 -9.023438 26.894531 -8.445312 26.28125 -7.875 C 25.664062 -7.300781 24.875 -6.703125 23.90625 -6.078125 C 23.78125 -6.035156 23.6875 -5.96875 23.625 -5.875 C 23.5625 -5.789062 23.425781 -5.75 23.21875 -5.75 C 23.175781 -5.75 23.109375 -5.757812 23.015625 -5.78125 C 22.929688 -5.800781 22.847656 -5.8125 22.765625 -5.8125 C 22.097656 -5.945312 21.773438 -6.253906 21.796875 -6.734375 C 21.816406 -7.222656 22.003906 -7.738281 22.359375 -8.28125 C 22.710938 -8.832031 23 -9.234375 23.21875 -9.484375 C 23.425781 -9.828125 23.625 -10.125 23.8125 -10.375 C 24 -10.625 24.203125 -10.894531 24.421875 -11.1875 C 26.097656 -13.632812 27.78125 -16.019531 29.46875 -18.34375 C 31.15625 -20.664062 32.757812 -23.109375 34.28125 -25.671875 C 34.789062 -26.554688 35.378906 -27.757812 36.046875 -29.28125 C 36.722656 -30.800781 37.367188 -32.457031 37.984375 -34.25 C 38.597656 -36.039062 39.0625 -37.820312 39.375 -39.59375 C 39.6875 -41.363281 39.695312 -42.96875 39.40625 -44.40625 C 39.238281 -45.25 38.992188 -45.835938 38.671875 -46.171875 C 38.359375 -46.503906 37.992188 -46.671875 37.578125 -46.671875 C 37.066406 -46.671875 36.492188 -46.472656 35.859375 -46.078125 C 35.222656 -45.679688 34.617188 -45.21875 34.046875 -44.6875 C 33.484375 -44.15625 33.015625 -43.703125 32.640625 -43.328125 C 30.867188 -41.554688 29.171875 -39.382812 27.546875 -36.8125 C 25.921875 -34.238281 24.410156 -31.453125 23.015625 -28.453125 C 21.628906 -25.460938 20.34375 -22.394531 19.15625 -19.25 C 17.976562 -16.113281 16.925781 -13.046875 16 -10.046875 C 15.070312 -7.054688 14.289062 -4.316406 13.65625 -1.828125 C 13.238281 -0.191406 12.816406 1.394531 12.390625 2.9375 C 11.972656 4.476562 11.597656 6.113281 11.265625 7.84375 L 10.0625 15.875 C 9.925781 16.425781 9.796875 16.785156 9.671875 16.953125 C 9.546875 17.117188 9.253906 17.304688 8.796875 17.515625 C 7.992188 17.347656 7.582031 17.03125 7.5625 16.5625 C 7.539062 16.101562 7.550781 15.472656 7.59375 14.671875 L 8.796875 2.78125 C 9.253906 -2.570312 9.851562 -7.851562 10.59375 -13.0625 C 11.332031 -18.269531 11.976562 -23.507812 12.53125 -28.78125 C 12.738281 -30.082031 12.914062 -31.40625 13.0625 -32.75 C 13.207031 -34.101562 13.28125 -35.4375 13.28125 -36.75 C 13.28125 -37.425781 13.300781 -38.195312 13.34375 -39.0625 C 13.382812 -39.925781 13.363281 -40.648438 13.28125 -41.234375 C 13.15625 -41.953125 13.039062 -42.570312 12.9375 -43.09375 C 12.832031 -43.625 12.695312 -44.1875 12.53125 -44.78125 C 11.851562 -44.738281 11.269531 -44.367188 10.78125 -43.671875 C 10.300781 -42.972656 9.890625 -42.332031 9.546875 -41.75 C 7.773438 -39.09375 6.253906 -36.128906 4.984375 -32.859375 C 3.722656 -29.585938 2.863281 -26.332031 2.40625 -23.09375 C 2.238281 -21.945312 2.132812 -20.632812 2.09375 -19.15625 C 2.050781 -17.6875 2.195312 -16.445312 2.53125 -15.4375 C 2.78125 -14.800781 3.070312 -14.410156 3.40625 -14.265625 C 3.75 -14.117188 4.078125 -14.046875 4.390625 -14.046875 C 4.710938 -14.046875 4.945312 -13.957031 5.09375 -13.78125 C 5.238281 -13.613281 5.25 -13.21875 5.125 -12.59375 C 4.570312 -12.457031 4.046875 -12.390625 3.546875 -12.390625 C 2.867188 -12.390625 2.328125 -12.546875 1.921875 -12.859375 C 1.523438 -13.179688 1.160156 -13.660156 0.828125 -14.296875 C 0.273438 -15.515625 0 -16.851562 0 -18.3125 C 0 -19.769531 0.0820312 -21.148438 0.25 -22.453125 C 0.457031 -24.554688 0.867188 -26.640625 1.484375 -28.703125 C 2.097656 -30.773438 2.765625 -32.78125 3.484375 -34.71875 L 5.4375 -39.03125 C 5.644531 -39.488281 5.988281 -40.179688 6.46875 -41.109375 C 6.957031 -42.035156 7.539062 -42.984375 8.21875 -43.953125 C 8.894531 -44.921875 9.601562 -45.742188 10.34375 -46.421875 C 11.082031 -47.097656 11.832031 -47.4375 12.59375 -47.4375 C 13.300781 -47.4375 13.929688 -47.078125 14.484375 -46.359375 C 15.203125 -45.472656 15.675781 -44.414062 15.90625 -43.1875 C 16.132812 -41.96875 16.238281 -40.703125 16.21875 -39.390625 C 16.195312 -38.085938 16.1875 -36.867188 16.1875 -35.734375 C 16.1875 -34.679688 16.132812 -33.722656 16.03125 -32.859375 C 15.925781 -31.992188 15.832031 -31.054688 15.75 -30.046875 C 15.664062 -28.148438 15.492188 -26.28125 15.234375 -24.4375 C 14.984375 -22.601562 14.710938 -20.738281 14.421875 -18.84375 L 13.46875 -10.6875 C 13.382812 -10.132812 13.300781 -9.660156 13.21875 -9.265625 C 13.132812 -8.867188 13.09375 -8.414062 13.09375 -7.90625 C 13.382812 -8.28125 13.59375 -8.742188 13.71875 -9.296875 C 13.851562 -9.847656 13.984375 -10.332031 14.109375 -10.75 L 14.984375 -13.59375 C 16.085938 -17.21875 17.40625 -20.84375 18.9375 -24.46875 C 20.476562 -28.101562 22.132812 -31.5625 23.90625 -34.84375 C 24.582031 -35.945312 25.445312 -37.296875 26.5 -38.890625 C 27.550781 -40.492188 28.71875 -42.078125 30 -43.640625 C 31.289062 -45.203125 32.609375 -46.5 33.953125 -47.53125 C 35.304688 -48.5625 36.617188 -49.078125 37.890625 -49.078125 C 38.898438 -49.078125 39.785156 -48.664062 40.546875 -47.84375 C 41.304688 -47.019531 41.832031 -45.765625 42.125 -44.078125 C 42.414062 -42.304688 42.378906 -40.429688 42.015625 -38.453125 C 41.660156 -36.472656 41.101562 -34.46875 40.34375 -32.4375 C 39.59375 -30.414062 38.742188 -28.46875 37.796875 -26.59375 C 36.847656 -24.71875 35.910156 -23.019531 34.984375 -21.5 C 34.640625 -21 34.171875 -20.316406 33.578125 -19.453125 C 32.992188 -18.585938 32.375 -17.691406 31.71875 -16.765625 C 31.0625 -15.835938 30.46875 -14.992188 29.9375 -14.234375 C 29.414062 -13.472656 29.070312 -12.925781 28.90625 -12.59375 Z M 16.953125 35.984375 C 17.878906 35.984375 18.828125 35.816406 19.796875 35.484375 C 20.765625 35.148438 21.566406 34.832031 22.203125 34.53125 C 24.609375 33.3125 26.695312 31.785156 28.46875 29.953125 C 30.238281 28.117188 31.796875 26.082031 33.140625 23.84375 C 34.492188 21.613281 35.695312 19.316406 36.75 16.953125 C 36.957031 16.484375 37.21875 15.804688 37.53125 14.921875 C 37.851562 14.035156 38.171875 13.078125 38.484375 12.046875 C 38.804688 11.015625 39.070312 10.054688 39.28125 9.171875 C 39.488281 8.285156 39.59375 7.585938 39.59375 7.078125 L 25.109375 15.375 L 19.546875 19.421875 C 18.828125 19.960938 17.984375 20.707031 17.015625 21.65625 C 16.046875 22.613281 15.265625 23.46875 14.671875 24.21875 C 12.984375 26.414062 12.023438 28.398438 11.796875 30.171875 C 11.566406 31.941406 11.925781 33.351562 12.875 34.40625 C 13.820312 35.457031 15.179688 35.984375 16.953125 35.984375 Z M 16.953125 35.984375 "/></g></g></g><g fill="#8a2be2" fill-opacity="1"><g transform="translate(202.830935, 151.833813)"><g><path d="M 2.90625 -11.453125 C 3.707031 -11.867188 4.59375 -12.445312 5.5625 -13.1875 C 6.53125 -13.925781 7.054688 -14.800781 7.140625 -15.8125 C 6.597656 -15.726562 6.019531 -15.429688 5.40625 -14.921875 C 4.789062 -14.421875 4.257812 -13.851562 3.8125 -13.21875 C 3.375 -12.582031 3.070312 -11.992188 2.90625 -11.453125 Z M 0.0625 -9.9375 C 0.0625 -10.988281 0.410156 -12.125 1.109375 -13.34375 C 1.804688 -14.570312 2.671875 -15.613281 3.703125 -16.46875 C 4.734375 -17.332031 5.753906 -17.765625 6.765625 -17.765625 C 8.160156 -17.765625 8.890625 -17.238281 8.953125 -16.1875 C 9.015625 -15.132812 8.5625 -14 7.59375 -12.78125 C 7.082031 -12.226562 6.320312 -11.59375 5.3125 -10.875 C 4.300781 -10.15625 3.3125 -9.753906 2.34375 -9.671875 C 2.34375 -9.003906 2.363281 -8.40625 2.40625 -7.875 C 2.445312 -7.34375 2.738281 -6.804688 3.28125 -6.265625 C 3.832031 -5.710938 4.53125 -5.4375 5.375 -5.4375 C 6.46875 -5.4375 7.601562 -5.785156 8.78125 -6.484375 C 9.96875 -7.179688 10.878906 -7.757812 11.515625 -8.21875 C 11.765625 -8.425781 11.960938 -8.59375 12.109375 -8.71875 C 12.253906 -8.851562 12.4375 -9.003906 12.65625 -9.171875 C 13.539062 -9.847656 14.097656 -10.34375 14.328125 -10.65625 C 14.554688 -10.96875 14.753906 -11.175781 14.921875 -11.28125 C 15.097656 -11.394531 15.5 -11.453125 16.125 -11.453125 C 16.207031 -10.984375 16.238281 -10.664062 16.21875 -10.5 C 16.195312 -10.332031 16.039062 -10.078125 15.75 -9.734375 C 14.988281 -8.984375 14.023438 -8.117188 12.859375 -7.140625 C 11.703125 -6.171875 10.457031 -5.328125 9.125 -4.609375 C 7.800781 -3.898438 6.488281 -3.546875 5.1875 -3.546875 C 4.507812 -3.546875 3.863281 -3.660156 3.25 -3.890625 C 2.644531 -4.117188 2.066406 -4.507812 1.515625 -5.0625 C 0.753906 -5.820312 0.320312 -6.601562 0.21875 -7.40625 C 0.113281 -8.207031 0.0625 -9.050781 0.0625 -9.9375 Z M 0.0625 -9.9375 "/></g></g><g transform="translate(216.556263, 151.833813)"><g><path d="M 1.765625 -3.28125 C 0.960938 -3.28125 0.445312 -3.765625 0.21875 -4.734375 C -0.0078125 -5.710938 -0.0390625 -6.925781 0.125 -8.375 C 0.289062 -9.832031 0.59375 -11.285156 1.03125 -12.734375 C 1.476562 -14.191406 1.976562 -15.40625 2.53125 -16.375 C 3.082031 -17.351562 3.585938 -17.84375 4.046875 -17.84375 C 4.765625 -17.84375 5.101562 -17.515625 5.0625 -16.859375 C 5.019531 -16.203125 4.804688 -15.335938 4.421875 -14.265625 C 4.046875 -13.191406 3.664062 -12.007812 3.28125 -10.71875 C 2.90625 -9.4375 2.71875 -8.179688 2.71875 -6.953125 L 5.75 -11.578125 C 5.882812 -11.828125 6.160156 -12.269531 6.578125 -12.90625 C 6.992188 -13.539062 7.46875 -14.128906 8 -14.671875 C 8.53125 -15.222656 9.046875 -15.5 9.546875 -15.5 C 10.054688 -15.5 10.457031 -15.160156 10.75 -14.484375 L 11.125 -10.9375 C 11.125 -10.5625 11.144531 -9.972656 11.1875 -9.171875 C 11.238281 -8.367188 11.335938 -7.554688 11.484375 -6.734375 C 11.628906 -5.910156 11.867188 -5.203125 12.203125 -4.609375 C 12.546875 -4.023438 13.007812 -3.734375 13.59375 -3.734375 C 14.226562 -3.734375 14.894531 -4.113281 15.59375 -4.875 C 16.289062 -5.632812 16.960938 -6.507812 17.609375 -7.5 C 18.265625 -8.488281 18.851562 -9.363281 19.375 -10.125 C 19.90625 -10.882812 20.320312 -11.265625 20.625 -11.265625 C 21.25 -11.265625 21.539062 -11.019531 21.5 -10.53125 C 21.457031 -10.039062 21.242188 -9.476562 20.859375 -8.84375 C 20.484375 -8.21875 20.09375 -7.628906 19.6875 -7.078125 C 19.289062 -6.535156 19.050781 -6.203125 18.96875 -6.078125 C 18.675781 -5.691406 18.273438 -5.203125 17.765625 -4.609375 C 17.265625 -4.023438 16.738281 -3.476562 16.1875 -2.96875 C 15.644531 -2.46875 15.117188 -2.15625 14.609375 -2.03125 C 14.191406 -1.894531 13.789062 -1.828125 13.40625 -1.828125 C 12.4375 -1.828125 11.664062 -2.1875 11.09375 -2.90625 C 10.53125 -3.625 10.097656 -4.40625 9.796875 -5.25 C 9.378906 -6.507812 9.148438 -7.632812 9.109375 -8.625 C 9.066406 -9.625 9.066406 -10.46875 9.109375 -11.15625 C 9.148438 -11.851562 9.066406 -12.394531 8.859375 -12.78125 C 8.347656 -12.4375 7.804688 -11.757812 7.234375 -10.75 C 6.671875 -9.738281 6.082031 -8.648438 5.46875 -7.484375 C 4.851562 -6.328125 4.238281 -5.335938 3.625 -4.515625 C 3.019531 -3.691406 2.398438 -3.28125 1.765625 -3.28125 Z M 1.765625 -3.28125 "/></g></g></g><g fill="#8a2be2" fill-opacity="1"><g transform="translate(235.531365, 151.833813)"><g><path d="M 0 23.34375 C 0.84375 23.34375 1.695312 22.921875 2.5625 22.078125 C 3.425781 21.234375 4.066406 20.453125 4.484375 19.734375 C 5.960938 17.242188 6.898438 14.609375 7.296875 11.828125 C 7.703125 9.046875 8.050781 6.367188 8.34375 3.796875 L 8.609375 0.125 C 8.347656 0.207031 7.953125 0.53125 7.421875 1.09375 C 6.898438 1.664062 6.394531 2.269531 5.90625 2.90625 C 5.425781 3.539062 5.101562 3.984375 4.9375 4.234375 C 4.46875 4.828125 3.882812 5.617188 3.1875 6.609375 C 2.5 7.597656 1.816406 8.617188 1.140625 9.671875 C 0.460938 10.734375 -0.0390625 11.660156 -0.375 12.453125 C -0.5 12.796875 -0.726562 13.390625 -1.0625 14.234375 C -1.40625 15.078125 -1.710938 16.015625 -1.984375 17.046875 C -2.265625 18.078125 -2.4375 19.066406 -2.5 20.015625 C -2.5625 20.960938 -2.410156 21.753906 -2.046875 22.390625 C -1.691406 23.023438 -1.007812 23.34375 0 23.34375 Z M -0.703125 -5.375 C -0.703125 -6.382812 -0.394531 -7.582031 0.21875 -8.96875 C 0.832031 -10.363281 1.644531 -11.710938 2.65625 -13.015625 C 3.664062 -14.328125 4.75 -15.414062 5.90625 -16.28125 C 7.070312 -17.144531 8.222656 -17.578125 9.359375 -17.578125 C 10.535156 -17.578125 11.367188 -17.15625 11.859375 -16.3125 C 12.347656 -15.46875 12.316406 -14.625 11.765625 -13.78125 C 11.253906 -13.832031 10.914062 -14.023438 10.75 -14.359375 C 10.582031 -14.691406 10.414062 -15.023438 10.25 -15.359375 C 10.082031 -15.703125 9.765625 -15.875 9.296875 -15.875 C 8.367188 -15.875 7.421875 -15.429688 6.453125 -14.546875 C 5.484375 -13.660156 4.585938 -12.570312 3.765625 -11.28125 C 2.941406 -10 2.273438 -8.722656 1.765625 -7.453125 C 1.265625 -6.191406 1.015625 -5.160156 1.015625 -4.359375 C 1.773438 -4.578125 2.445312 -5.007812 3.03125 -5.65625 C 3.625 -6.3125 4.128906 -6.851562 4.546875 -7.28125 C 4.972656 -7.738281 5.445312 -8.328125 5.96875 -9.046875 C 6.5 -9.765625 6.957031 -10.394531 7.34375 -10.9375 C 7.550781 -11.28125 7.820312 -11.703125 8.15625 -12.203125 C 8.5 -12.710938 8.921875 -12.96875 9.421875 -12.96875 C 9.890625 -12.96875 10.25 -12.691406 10.5 -12.140625 C 10.75 -11.597656 10.914062 -10.914062 11 -10.09375 C 11.082031 -9.269531 11.125 -8.445312 11.125 -7.625 C 11.125 -6.800781 11.125 -6.113281 11.125 -5.5625 C 11.46875 -5.644531 11.984375 -5.960938 12.671875 -6.515625 C 13.367188 -7.066406 14.140625 -7.6875 14.984375 -8.375 C 15.828125 -9.070312 16.660156 -9.679688 17.484375 -10.203125 C 18.304688 -10.734375 18.992188 -11 19.546875 -11 C 19.796875 -11 19.960938 -10.863281 20.046875 -10.59375 C 20.128906 -10.320312 20.109375 -10.054688 19.984375 -9.796875 C 19.941406 -9.753906 19.632812 -9.507812 19.0625 -9.0625 C 18.5 -8.625 17.828125 -8.117188 17.046875 -7.546875 C 16.265625 -6.984375 15.503906 -6.40625 14.765625 -5.8125 C 14.023438 -5.226562 13.46875 -4.742188 13.09375 -4.359375 C 12.757812 -4.066406 12.398438 -3.8125 12.015625 -3.59375 C 11.640625 -3.382812 11.410156 -3.007812 11.328125 -2.46875 C 11.191406 -1.289062 11.125 -0.171875 11.125 0.890625 C 11.125 2.148438 11.03125 3.582031 10.84375 5.1875 C 10.65625 6.789062 10.390625 8.425781 10.046875 10.09375 C 9.710938 11.757812 9.320312 13.328125 8.875 14.796875 C 8.4375 16.273438 7.96875 17.519531 7.46875 18.53125 C 6.238281 20.9375 4.957031 22.632812 3.625 23.625 C 2.300781 24.613281 1.09375 25.109375 0 25.109375 C -1.175781 25.109375 -2.144531 24.675781 -2.90625 23.8125 C -3.664062 22.945312 -4.046875 21.882812 -4.046875 20.625 C -4.046875 19.269531 -3.960938 18.109375 -3.796875 17.140625 C -3.628906 16.171875 -3.363281 15.234375 -3 14.328125 C -2.644531 13.421875 -2.171875 12.375 -1.578125 11.1875 C -0.316406 8.625 1.101562 6.285156 2.6875 4.171875 C 4.269531 2.066406 6.03125 -0.0195312 7.96875 -2.09375 C 8.519531 -2.675781 8.765625 -3.648438 8.703125 -5.015625 C 8.640625 -6.390625 8.609375 -7.734375 8.609375 -9.046875 C 8.265625 -8.921875 7.785156 -8.40625 7.171875 -7.5 C 6.566406 -6.59375 5.90625 -5.820312 5.1875 -5.1875 C 4.757812 -4.757812 4.15625 -4.195312 3.375 -3.5 C 2.601562 -2.8125 1.816406 -2.46875 1.015625 -2.46875 C 0.378906 -2.46875 -0.0507812 -2.632812 -0.28125 -2.96875 C -0.507812 -3.3125 -0.632812 -3.710938 -0.65625 -4.171875 C -0.6875 -4.640625 -0.703125 -5.039062 -0.703125 -5.375 Z M -0.703125 -5.375 "/></g></g></g><g fill="#8a2be2" fill-opacity="1"><g transform="translate(253.178213, 151.833813)"><g><path d="M 5.25 0.25 C 4.40625 0.25 3.65625 -0.0195312 3 -0.5625 C 2.351562 -1.113281 1.859375 -1.6875 1.515625 -2.28125 C 0.753906 -3.707031 0.320312 -5.398438 0.21875 -7.359375 C 0.113281 -9.328125 0.226562 -11.113281 0.5625 -12.71875 C 0.65625 -13.175781 0.773438 -13.734375 0.921875 -14.390625 C 1.066406 -15.046875 1.285156 -15.625 1.578125 -16.125 C 1.878906 -16.632812 2.238281 -16.890625 2.65625 -16.890625 C 3.625 -16.890625 4.097656 -16.5625 4.078125 -15.90625 C 4.054688 -15.25 3.875 -14.234375 3.53125 -12.859375 C 3.195312 -11.492188 3.03125 -9.738281 3.03125 -7.59375 C 3.03125 -6.957031 3.113281 -6.195312 3.28125 -5.3125 C 3.457031 -4.425781 3.722656 -3.644531 4.078125 -2.96875 C 4.441406 -2.289062 4.894531 -1.953125 5.4375 -1.953125 C 6.113281 -1.953125 6.882812 -2.25 7.75 -2.84375 C 8.613281 -3.4375 9.414062 -4.101562 10.15625 -4.84375 C 10.894531 -5.582031 11.410156 -6.140625 11.703125 -6.515625 C 11.785156 -6.597656 12.015625 -6.878906 12.390625 -7.359375 C 12.773438 -7.847656 13.226562 -8.398438 13.75 -9.015625 C 14.28125 -9.628906 14.796875 -10.164062 15.296875 -10.625 C 15.804688 -11.09375 16.210938 -11.328125 16.515625 -11.328125 C 16.804688 -11.328125 16.953125 -11.070312 16.953125 -10.5625 C 16.953125 -10.269531 16.75 -9.816406 16.34375 -9.203125 C 15.945312 -8.585938 15.472656 -7.941406 14.921875 -7.265625 C 14.378906 -6.597656 13.84375 -5.96875 13.3125 -5.375 C 12.789062 -4.78125 12.398438 -4.359375 12.140625 -4.109375 C 11.640625 -3.609375 11.039062 -3.007812 10.34375 -2.3125 C 9.644531 -1.613281 8.875 -1.007812 8.03125 -0.5 C 7.1875 0 6.257812 0.25 5.25 0.25 Z M 3.21875 -24.859375 C 3.21875 -25.578125 3.40625 -26.195312 3.78125 -26.71875 C 4.164062 -27.25 4.59375 -27.515625 5.0625 -27.515625 C 5.5625 -27.515625 5.984375 -27.195312 6.328125 -26.5625 C 6.910156 -25.382812 6.976562 -24.46875 6.53125 -23.8125 C 6.09375 -23.15625 5.5625 -22.828125 4.9375 -22.828125 C 4.507812 -22.828125 4.113281 -22.992188 3.75 -23.328125 C 3.394531 -23.671875 3.21875 -24.179688 3.21875 -24.859375 Z M 3.21875 -24.859375 "/></g></g><g transform="translate(267.599296, 151.833813)"><g><path d="M 0.765625 10.4375 C 0.765625 11.320312 1.035156 11.765625 1.578125 11.765625 C 1.878906 11.765625 2.195312 11.65625 2.53125 11.4375 C 2.863281 11.226562 3.140625 11.039062 3.359375 10.875 C 4.203125 10.25 4.945312 9.289062 5.59375 8 C 6.25 6.71875 6.722656 5.546875 7.015625 4.484375 C 7.234375 3.773438 7.351562 3.050781 7.375 2.3125 C 7.394531 1.570312 7.40625 0.757812 7.40625 -0.125 C 6.894531 0.164062 6.3125 0.679688 5.65625 1.421875 C 5.007812 2.160156 4.492188 2.757812 4.109375 3.21875 C 3.347656 4.15625 2.597656 5.273438 1.859375 6.578125 C 1.128906 7.878906 0.765625 9.164062 0.765625 10.4375 Z M 0.1875 -10.25 C 0.1875 -11.34375 0.476562 -12.320312 1.0625 -13.1875 C 1.65625 -14.050781 2.363281 -14.742188 3.1875 -15.265625 C 4.007812 -15.796875 4.71875 -16.0625 5.3125 -16.0625 C 5.78125 -16.0625 6.128906 -15.890625 6.359375 -15.546875 C 6.585938 -15.210938 6.597656 -14.648438 6.390625 -13.859375 C 5.878906 -13.722656 5.519531 -13.644531 5.3125 -13.625 C 5.101562 -13.601562 4.9375 -13.539062 4.8125 -13.4375 C 4.6875 -13.332031 4.453125 -13.09375 4.109375 -12.71875 C 3.265625 -11.789062 2.875 -11.039062 2.9375 -10.46875 C 3 -9.894531 3.335938 -9.363281 3.953125 -8.875 C 4.566406 -8.394531 5.328125 -7.796875 6.234375 -7.078125 C 7.140625 -6.367188 7.992188 -5.398438 8.796875 -4.171875 C 9.722656 -4.804688 10.671875 -5.546875 11.640625 -6.390625 L 17.515625 -10.5 C 18.066406 -10.875 18.539062 -11.132812 18.9375 -11.28125 C 19.34375 -11.4375 19.691406 -11.515625 19.984375 -11.515625 C 20.492188 -11.515625 20.707031 -11.300781 20.625 -10.875 C 20.539062 -10.457031 20.140625 -10.035156 19.421875 -9.609375 L 15.109375 -6.640625 C 14.941406 -6.554688 14.582031 -6.3125 14.03125 -5.90625 C 13.488281 -5.507812 12.890625 -5.066406 12.234375 -4.578125 C 11.585938 -4.097656 11.03125 -3.644531 10.5625 -3.21875 C 10.09375 -2.800781 9.835938 -2.53125 9.796875 -2.40625 C 9.753906 -2.195312 9.816406 -1.796875 9.984375 -1.203125 C 10.160156 -0.609375 10.28125 0.160156 10.34375 1.109375 C 10.40625 2.054688 10.273438 3.210938 9.953125 4.578125 C 9.640625 5.953125 8.957031 7.546875 7.90625 9.359375 C 6.976562 10.921875 5.960938 12.070312 4.859375 12.8125 C 3.765625 13.550781 2.734375 13.921875 1.765625 13.921875 C 0.878906 13.921875 0.15625 13.625 -0.40625 13.03125 C -0.976562 12.4375 -1.265625 11.570312 -1.265625 10.4375 C -1.265625 9 -0.914062 7.601562 -0.21875 6.25 C 0.476562 4.90625 1.3125 3.664062 2.28125 2.53125 C 3.25 1.394531 4.144531 0.414062 4.96875 -0.40625 C 5.789062 -1.226562 6.328125 -1.832031 6.578125 -2.21875 C 6.066406 -3.101562 5.453125 -3.867188 4.734375 -4.515625 C 4.023438 -5.171875 3.320312 -5.769531 2.625 -6.3125 C 1.925781 -6.863281 1.34375 -7.445312 0.875 -8.0625 C 0.414062 -8.675781 0.1875 -9.40625 0.1875 -10.25 Z M 0.1875 -10.25 "/></g></g></g><g fill="#8a2be2" fill-opacity="1"><g transform="translate(285.878643, 151.833813)"><g><path d="M 0.0625 -7.71875 C 0.0625 -8.644531 0.195312 -9.675781 0.46875 -10.8125 C 0.75 -11.957031 1.109375 -13.066406 1.546875 -14.140625 C 1.992188 -15.210938 2.46875 -16.085938 2.96875 -16.765625 C 3.4375 -17.265625 3.898438 -17.515625 4.359375 -17.515625 C 4.742188 -17.515625 5.125 -17.410156 5.5 -17.203125 C 5.539062 -16.992188 5.59375 -16.847656 5.65625 -16.765625 C 5.71875 -16.679688 5.75 -16.488281 5.75 -16.1875 C 5.75 -16.144531 5.5625 -15.742188 5.1875 -14.984375 C 4.8125 -14.234375 4.398438 -13.285156 3.953125 -12.140625 C 3.503906 -11.003906 3.144531 -9.800781 2.875 -8.53125 C 2.601562 -7.269531 2.59375 -6.113281 2.84375 -5.0625 C 3.351562 -5.226562 3.796875 -5.550781 4.171875 -6.03125 C 4.554688 -6.519531 4.894531 -6.976562 5.1875 -7.40625 L 8.984375 -12.96875 C 9.398438 -13.5625 9.753906 -14.078125 10.046875 -14.515625 C 10.347656 -14.960938 10.796875 -15.1875 11.390625 -15.1875 C 11.972656 -15.1875 12.316406 -14.816406 12.421875 -14.078125 C 12.535156 -13.335938 12.554688 -12.503906 12.484375 -11.578125 C 12.421875 -10.648438 12.410156 -9.910156 12.453125 -9.359375 C 12.671875 -7.835938 13 -6.769531 13.4375 -6.15625 C 13.882812 -5.550781 14.398438 -5.25 14.984375 -5.25 C 15.703125 -5.25 16.460938 -5.539062 17.265625 -6.125 C 18.066406 -6.71875 18.867188 -7.40625 19.671875 -8.1875 C 20.472656 -8.96875 21.175781 -9.648438 21.78125 -10.234375 C 22.394531 -10.828125 22.851562 -11.125 23.15625 -11.125 C 23.40625 -11.125 23.632812 -11.070312 23.84375 -10.96875 C 24.050781 -10.863281 24.15625 -10.644531 24.15625 -10.3125 C 24.15625 -9.96875 23.898438 -9.507812 23.390625 -8.9375 C 22.890625 -8.375 22.34375 -7.828125 21.75 -7.296875 C 21.164062 -6.773438 20.75 -6.390625 20.5 -6.140625 C 19.65625 -5.335938 18.734375 -4.648438 17.734375 -4.078125 C 16.742188 -3.503906 15.765625 -3.21875 14.796875 -3.21875 C 13.742188 -3.21875 12.921875 -3.503906 12.328125 -4.078125 C 11.742188 -4.648438 11.3125 -5.367188 11.03125 -6.234375 C 10.757812 -7.097656 10.582031 -8.003906 10.5 -8.953125 C 10.414062 -9.898438 10.375 -10.753906 10.375 -11.515625 C 10.125 -11.347656 9.816406 -10.976562 9.453125 -10.40625 C 9.097656 -9.832031 8.816406 -9.378906 8.609375 -9.046875 C 8.347656 -8.617188 7.984375 -8.035156 7.515625 -7.296875 C 7.054688 -6.566406 6.539062 -5.832031 5.96875 -5.09375 C 5.40625 -4.351562 4.835938 -3.726562 4.265625 -3.21875 C 3.703125 -2.71875 3.164062 -2.46875 2.65625 -2.46875 C 1.6875 -2.46875 1.019531 -2.75 0.65625 -3.3125 C 0.300781 -3.882812 0.113281 -4.582031 0.09375 -5.40625 C 0.0703125 -6.226562 0.0625 -7 0.0625 -7.71875 Z M 0.0625 -7.71875 "/></g></g></g><g fill="#8a2be2" fill-opacity="1"><g transform="translate(307.257264, 151.833813)"><g/></g></g><g fill="#8a2be2" fill-opacity="1"><g transform="translate(323.639097, 151.833813)"><g><path d="M -17.765625 -28.203125 C -17.765625 -28.753906 -17.257812 -29.332031 -16.25 -29.9375 C -15.238281 -30.550781 -13.960938 -31.15625 -12.421875 -31.75 C -10.890625 -32.34375 -9.269531 -32.898438 -7.5625 -33.421875 C -5.851562 -33.953125 -4.28125 -34.40625 -2.84375 -34.78125 C -1.414062 -35.164062 -0.34375 -35.460938 0.375 -35.671875 C 1.257812 -35.921875 1.878906 -36.066406 2.234375 -36.109375 C 2.597656 -36.148438 2.832031 -36.285156 2.9375 -36.515625 C 3.039062 -36.753906 3.15625 -37.234375 3.28125 -37.953125 C 3.625 -39.679688 4.015625 -40.867188 4.453125 -41.515625 C 4.898438 -42.171875 5.332031 -42.5 5.75 -42.5 C 6.09375 -42.5 6.378906 -42.316406 6.609375 -41.953125 C 6.835938 -41.597656 6.953125 -41.171875 6.953125 -40.671875 C 6.953125 -40.285156 6.929688 -40.125 6.890625 -40.1875 C 6.847656 -40.257812 6.847656 -40.125 6.890625 -39.78125 C 6.890625 -39.695312 6.898438 -39.59375 6.921875 -39.46875 C 6.941406 -39.34375 6.953125 -39.175781 6.953125 -38.96875 C 6.953125 -38.414062 6.847656 -38.140625 6.640625 -38.140625 C 6.429688 -38.140625 6.21875 -38.109375 6 -38.046875 C 5.789062 -37.984375 5.6875 -37.613281 5.6875 -36.9375 C 6.195312 -36.9375 6.753906 -37.007812 7.359375 -37.15625 C 7.972656 -37.300781 8.515625 -37.394531 8.984375 -37.4375 C 10.835938 -37.78125 12.691406 -38.085938 14.546875 -38.359375 C 16.398438 -38.628906 18.296875 -38.765625 20.234375 -38.765625 C 21.253906 -38.765625 21.992188 -38.550781 22.453125 -38.125 C 22.921875 -37.707031 23.085938 -37.289062 22.953125 -36.875 C 22.828125 -36.457031 22.363281 -36.25 21.5625 -36.25 C 21.476562 -36.582031 21.425781 -36.738281 21.40625 -36.71875 C 21.382812 -36.695312 21.1875 -36.726562 20.8125 -36.8125 C 20.644531 -36.851562 20.304688 -36.875 19.796875 -36.875 C 18.910156 -36.875 17.738281 -36.78125 16.28125 -36.59375 C 14.832031 -36.40625 13.328125 -36.179688 11.765625 -35.921875 C 10.203125 -35.671875 8.804688 -35.425781 7.578125 -35.1875 C 6.359375 -34.957031 5.5625 -34.800781 5.1875 -34.71875 L 3.921875 -21.765625 C 3.878906 -21.460938 3.867188 -21.140625 3.890625 -20.796875 C 3.910156 -20.460938 3.921875 -20.128906 3.921875 -19.796875 C 3.921875 -19.378906 3.890625 -19.101562 3.828125 -18.96875 C 3.765625 -18.84375 3.734375 -18.550781 3.734375 -18.09375 C 3.734375 -17.164062 3.753906 -16.097656 3.796875 -14.890625 C 3.835938 -13.691406 3.816406 -12.753906 3.734375 -12.078125 C 3.691406 -11.703125 3.660156 -10.953125 3.640625 -9.828125 C 3.617188 -8.710938 3.597656 -7.414062 3.578125 -5.9375 C 3.554688 -4.46875 3.546875 -2.984375 3.546875 -1.484375 C 3.546875 0.015625 3.546875 1.375 3.546875 2.59375 C 3.546875 3.8125 3.566406 4.695312 3.609375 5.25 C 3.609375 5.71875 3.660156 6.425781 3.765625 7.375 C 3.867188 8.320312 3.890625 9.171875 3.828125 9.921875 C 3.765625 10.679688 3.457031 11.0625 2.90625 11.0625 C 2.101562 11.0625 1.617188 10.617188 1.453125 9.734375 C 1.285156 8.847656 1.203125 8.03125 1.203125 7.28125 C 1.078125 5.757812 1.003906 3.984375 0.984375 1.953125 C 0.960938 -0.0664062 0.960938 -2.085938 0.984375 -4.109375 C 1.003906 -6.128906 1.015625 -7.898438 1.015625 -9.421875 L 1.203125 -12.390625 C 1.203125 -12.984375 1.203125 -13.890625 1.203125 -15.109375 C 1.203125 -16.335938 1.222656 -17.632812 1.265625 -19 C 1.304688 -20.375 1.347656 -21.628906 1.390625 -22.765625 C 1.429688 -23.910156 1.492188 -24.710938 1.578125 -25.171875 C 1.660156 -25.597656 1.710938 -26.101562 1.734375 -26.6875 C 1.753906 -27.28125 1.785156 -27.785156 1.828125 -28.203125 L 2.40625 -34.09375 C 2.238281 -34.050781 1.867188 -33.96875 1.296875 -33.84375 C 0.722656 -33.71875 0.269531 -33.609375 -0.0625 -33.515625 C -2.125 -33.015625 -4.09375 -32.476562 -5.96875 -31.90625 C -7.851562 -31.34375 -9.785156 -30.679688 -11.765625 -29.921875 C -12.140625 -29.753906 -12.484375 -29.570312 -12.796875 -29.375 C -13.117188 -29.1875 -13.472656 -29.007812 -13.859375 -28.84375 C -14.359375 -28.632812 -14.679688 -28.484375 -14.828125 -28.390625 C -14.972656 -28.304688 -15.046875 -28.203125 -15.046875 -28.078125 C -15.046875 -27.953125 -15.15625 -27.679688 -15.375 -27.265625 C -15.539062 -27.222656 -15.707031 -27.191406 -15.875 -27.171875 C -16.039062 -27.148438 -16.226562 -27.140625 -16.4375 -27.140625 C -16.78125 -27.140625 -17.085938 -27.210938 -17.359375 -27.359375 C -17.628906 -27.503906 -17.765625 -27.785156 -17.765625 -28.203125 Z M -17.765625 -28.203125 "/></g></g></g><g fill="#8a2be2" fill-opacity="1"><g transform="translate(330.97613, 151.833813)"><g><path d="M 2.90625 -11.453125 C 3.707031 -11.867188 4.59375 -12.445312 5.5625 -13.1875 C 6.53125 -13.925781 7.054688 -14.800781 7.140625 -15.8125 C 6.597656 -15.726562 6.019531 -15.429688 5.40625 -14.921875 C 4.789062 -14.421875 4.257812 -13.851562 3.8125 -13.21875 C 3.375 -12.582031 3.070312 -11.992188 2.90625 -11.453125 Z M 0.0625 -9.9375 C 0.0625 -10.988281 0.410156 -12.125 1.109375 -13.34375 C 1.804688 -14.570312 2.671875 -15.613281 3.703125 -16.46875 C 4.734375 -17.332031 5.753906 -17.765625 6.765625 -17.765625 C 8.160156 -17.765625 8.890625 -17.238281 8.953125 -16.1875 C 9.015625 -15.132812 8.5625 -14 7.59375 -12.78125 C 7.082031 -12.226562 6.320312 -11.59375 5.3125 -10.875 C 4.300781 -10.15625 3.3125 -9.753906 2.34375 -9.671875 C 2.34375 -9.003906 2.363281 -8.40625 2.40625 -7.875 C 2.445312 -7.34375 2.738281 -6.804688 3.28125 -6.265625 C 3.832031 -5.710938 4.53125 -5.4375 5.375 -5.4375 C 6.46875 -5.4375 7.601562 -5.785156 8.78125 -6.484375 C 9.96875 -7.179688 10.878906 -7.757812 11.515625 -8.21875 C 11.765625 -8.425781 11.960938 -8.59375 12.109375 -8.71875 C 12.253906 -8.851562 12.4375 -9.003906 12.65625 -9.171875 C 13.539062 -9.847656 14.097656 -10.34375 14.328125 -10.65625 C 14.554688 -10.96875 14.753906 -11.175781 14.921875 -11.28125 C 15.097656 -11.394531 15.5 -11.453125 16.125 -11.453125 C 16.207031 -10.984375 16.238281 -10.664062 16.21875 -10.5 C 16.195312 -10.332031 16.039062 -10.078125 15.75 -9.734375 C 14.988281 -8.984375 14.023438 -8.117188 12.859375 -7.140625 C 11.703125 -6.171875 10.457031 -5.328125 9.125 -4.609375 C 7.800781 -3.898438 6.488281 -3.546875 5.1875 -3.546875 C 4.507812 -3.546875 3.863281 -3.660156 3.25 -3.890625 C 2.644531 -4.117188 2.066406 -4.507812 1.515625 -5.0625 C 0.753906 -5.820312 0.320312 -6.601562 0.21875 -7.40625 C 0.113281 -8.207031 0.0625 -9.050781 0.0625 -9.9375 Z M 0.0625 -9.9375 "/></g></g><g transform="translate(344.701458, 151.833813)"><g><path d="M 0 -4.8125 C 0 -7.84375 0.0703125 -10.875 0.21875 -13.90625 C 0.363281 -16.945312 0.566406 -19.878906 0.828125 -22.703125 C 0.867188 -23.003906 0.953125 -23.703125 1.078125 -24.796875 C 1.203125 -25.890625 1.367188 -27.160156 1.578125 -28.609375 C 1.785156 -30.066406 2.035156 -31.492188 2.328125 -32.890625 C 2.628906 -34.285156 2.96875 -35.445312 3.34375 -36.375 C 3.726562 -37.300781 4.128906 -37.765625 4.546875 -37.765625 C 5.390625 -37.765625 5.875 -37.539062 6 -37.09375 C 6.132812 -36.65625 6.09375 -36.054688 5.875 -35.296875 C 5.664062 -34.535156 5.476562 -33.671875 5.3125 -32.703125 C 4.757812 -29.578125 4.257812 -26.203125 3.8125 -22.578125 C 3.375 -18.953125 3.039062 -15.347656 2.8125 -11.765625 C 2.582031 -8.179688 2.46875 -4.890625 2.46875 -1.890625 C 2.550781 -1.984375 2.800781 -2.4375 3.21875 -3.25 C 3.644531 -4.070312 4.179688 -5.113281 4.828125 -6.375 C 5.484375 -7.644531 6.191406 -8.988281 6.953125 -10.40625 C 7.710938 -11.820312 8.472656 -13.148438 9.234375 -14.390625 C 9.992188 -15.628906 10.675781 -16.640625 11.28125 -17.421875 C 11.894531 -18.203125 12.375 -18.59375 12.71875 -18.59375 C 13.644531 -18.59375 14.050781 -18.367188 13.9375 -17.921875 C 13.832031 -17.484375 13.484375 -16.882812 12.890625 -16.125 C 12.304688 -15.363281 11.695312 -14.457031 11.0625 -13.40625 C 10.894531 -13.15625 10.738281 -12.910156 10.59375 -12.671875 C 10.445312 -12.441406 10.289062 -12.203125 10.125 -11.953125 C 9.738281 -11.316406 9.484375 -10.820312 9.359375 -10.46875 C 9.234375 -10.113281 9.179688 -9.671875 9.203125 -9.140625 C 9.222656 -8.609375 9.296875 -7.734375 9.421875 -6.515625 C 9.503906 -5.628906 9.679688 -4.5 9.953125 -3.125 C 10.234375 -1.757812 10.5625 -0.394531 10.9375 0.96875 C 11.320312 2.34375 11.660156 3.453125 11.953125 4.296875 C 12.285156 5.097656 12.578125 5.6875 12.828125 6.0625 C 13.085938 6.445312 13.257812 6.851562 13.34375 7.28125 C 13.175781 7.445312 13.007812 7.625 12.84375 7.8125 C 12.675781 8 12.460938 8.09375 12.203125 8.09375 C 12.117188 8.09375 11.953125 8.050781 11.703125 7.96875 C 11.191406 7.71875 10.753906 7.273438 10.390625 6.640625 C 10.035156 6.003906 9.742188 5.328125 9.515625 4.609375 C 9.285156 3.898438 9.085938 3.289062 8.921875 2.78125 C 8.453125 1.394531 8.070312 -0.0234375 7.78125 -1.484375 C 7.488281 -2.941406 7.171875 -4.382812 6.828125 -5.8125 L 4.046875 0.25 C 3.753906 1.175781 3.488281 2.132812 3.25 3.125 C 3.019531 4.125 2.769531 4.957031 2.5 5.625 C 2.226562 6.300781 1.878906 6.640625 1.453125 6.640625 C 0.898438 6.640625 0.550781 6.4375 0.40625 6.03125 C 0.257812 5.632812 0.195312 5.140625 0.21875 4.546875 C 0.238281 3.960938 0.226562 3.414062 0.1875 2.90625 C 0.144531 2.445312 0.101562 2.085938 0.0625 1.828125 C 0.0195312 1.578125 0 1.15625 0 0.5625 Z M 0 -4.8125 "/></g></g></g><g fill="#8a2be2" fill-opacity="1"><g transform="translate(359.059286, 151.833813)"><g><path d="M 5.25 0.25 C 4.40625 0.25 3.65625 -0.0195312 3 -0.5625 C 2.351562 -1.113281 1.859375 -1.6875 1.515625 -2.28125 C 0.753906 -3.707031 0.320312 -5.398438 0.21875 -7.359375 C 0.113281 -9.328125 0.226562 -11.113281 0.5625 -12.71875 C 0.65625 -13.175781 0.773438 -13.734375 0.921875 -14.390625 C 1.066406 -15.046875 1.285156 -15.625 1.578125 -16.125 C 1.878906 -16.632812 2.238281 -16.890625 2.65625 -16.890625 C 3.625 -16.890625 4.097656 -16.5625 4.078125 -15.90625 C 4.054688 -15.25 3.875 -14.234375 3.53125 -12.859375 C 3.195312 -11.492188 3.03125 -9.738281 3.03125 -7.59375 C 3.03125 -6.957031 3.113281 -6.195312 3.28125 -5.3125 C 3.457031 -4.425781 3.722656 -3.644531 4.078125 -2.96875 C 4.441406 -2.289062 4.894531 -1.953125 5.4375 -1.953125 C 6.113281 -1.953125 6.882812 -2.25 7.75 -2.84375 C 8.613281 -3.4375 9.414062 -4.101562 10.15625 -4.84375 C 10.894531 -5.582031 11.410156 -6.140625 11.703125 -6.515625 C 11.785156 -6.597656 12.015625 -6.878906 12.390625 -7.359375 C 12.773438 -7.847656 13.226562 -8.398438 13.75 -9.015625 C 14.28125 -9.628906 14.796875 -10.164062 15.296875 -10.625 C 15.804688 -11.09375 16.210938 -11.328125 16.515625 -11.328125 C 16.804688 -11.328125 16.953125 -11.070312 16.953125 -10.5625 C 16.953125 -10.269531 16.75 -9.816406 16.34375 -9.203125 C 15.945312 -8.585938 15.472656 -7.941406 14.921875 -7.265625 C 14.378906 -6.597656 13.84375 -5.96875 13.3125 -5.375 C 12.789062 -4.78125 12.398438 -4.359375 12.140625 -4.109375 C 11.640625 -3.609375 11.039062 -3.007812 10.34375 -2.3125 C 9.644531 -1.613281 8.875 -1.007812 8.03125 -0.5 C 7.1875 0 6.257812 0.25 5.25 0.25 Z M 3.21875 -24.859375 C 3.21875 -25.578125 3.40625 -26.195312 3.78125 -26.71875 C 4.164062 -27.25 4.59375 -27.515625 5.0625 -27.515625 C 5.5625 -27.515625 5.984375 -27.195312 6.328125 -26.5625 C 6.910156 -25.382812 6.976562 -24.46875 6.53125 -23.8125 C 6.09375 -23.15625 5.5625 -22.828125 4.9375 -22.828125 C 4.507812 -22.828125 4.113281 -22.992188 3.75 -23.328125 C 3.394531 -23.671875 3.21875 -24.179688 3.21875 -24.859375 Z M 3.21875 -24.859375 "/></g></g><g transform="translate(373.480369, 151.833813)"><g><path d="M 0.890625 -0.25 C 0.460938 -0.25 0.207031 -0.507812 0.125 -1.03125 C 0.0390625 -1.5625 0.0195312 -2.125 0.0625 -2.71875 C 0.101562 -3.3125 0.125 -3.671875 0.125 -3.796875 C 0.0820312 -4.554688 0.0703125 -5.328125 0.09375 -6.109375 C 0.113281 -6.890625 0.101562 -7.675781 0.0625 -8.46875 C 0.0625 -8.769531 0.0703125 -9.332031 0.09375 -10.15625 C 0.113281 -10.976562 0.175781 -11.851562 0.28125 -12.78125 C 0.382812 -13.707031 0.539062 -14.503906 0.75 -15.171875 C 0.96875 -15.847656 1.242188 -16.1875 1.578125 -16.1875 C 2.421875 -16.1875 2.851562 -15.910156 2.875 -15.359375 C 2.894531 -14.816406 2.863281 -14.101562 2.78125 -13.21875 C 2.738281 -12.925781 2.71875 -12.597656 2.71875 -12.234375 C 2.71875 -11.878906 2.71875 -11.53125 2.71875 -11.1875 C 2.71875 -10.769531 2.695312 -10.5 2.65625 -10.375 C 2.613281 -10.25 2.59375 -9.972656 2.59375 -9.546875 C 3.050781 -9.890625 3.46875 -10.28125 3.84375 -10.71875 C 4.226562 -11.164062 4.90625 -11.390625 5.875 -11.390625 C 6.175781 -11.390625 6.566406 -11.398438 7.046875 -11.421875 C 7.535156 -11.441406 8.054688 -11.453125 8.609375 -11.453125 C 9.535156 -11.453125 10.394531 -11.394531 11.1875 -11.28125 C 11.988281 -11.175781 12.390625 -10.914062 12.390625 -10.5 C 12.390625 -10.070312 12.164062 -9.796875 11.71875 -9.671875 C 11.28125 -9.546875 10.75 -9.484375 10.125 -9.484375 C 9.695312 -9.484375 9.257812 -9.492188 8.8125 -9.515625 C 8.375 -9.535156 7.988281 -9.546875 7.65625 -9.546875 C 6.46875 -9.546875 5.675781 -9.484375 5.28125 -9.359375 C 4.882812 -9.234375 4.429688 -8.75 3.921875 -7.90625 C 3.628906 -7.351562 3.34375 -6.757812 3.0625 -6.125 C 2.789062 -5.5 2.59375 -4.804688 2.46875 -4.046875 C 2.34375 -3.492188 2.289062 -2.921875 2.3125 -2.328125 C 2.332031 -1.742188 2.265625 -1.25 2.109375 -0.84375 C 1.960938 -0.445312 1.554688 -0.25 0.890625 -0.25 Z M 0.890625 -0.25 "/></g></g></g><g fill="#8a2be2" fill-opacity="1"><g transform="translate(383.790185, 151.833813)"><g><path d="M 2.21875 -4.625 C 2.21875 -4.238281 2.300781 -4.046875 2.46875 -4.046875 C 2.757812 -4.046875 3.144531 -4.46875 3.625 -5.3125 C 4.113281 -6.15625 4.632812 -7.207031 5.1875 -8.46875 C 5.738281 -9.738281 6.265625 -11.015625 6.765625 -12.296875 C 7.273438 -13.585938 7.695312 -14.71875 8.03125 -15.6875 C 8.363281 -16.65625 8.53125 -17.222656 8.53125 -17.390625 C 7.820312 -17.304688 7.265625 -17.082031 6.859375 -16.71875 C 6.460938 -16.363281 6.09375 -15.957031 5.75 -15.5 C 4.65625 -14.144531 3.789062 -12.488281 3.15625 -10.53125 C 2.53125 -8.570312 2.21875 -6.601562 2.21875 -4.625 Z M 9.421875 -19.09375 C 9.421875 -19.5625 9.492188 -19.960938 9.640625 -20.296875 C 9.785156 -20.640625 9.925781 -21.019531 10.0625 -21.4375 L 11.390625 -28.59375 C 11.515625 -29.050781 11.671875 -29.742188 11.859375 -30.671875 C 12.046875 -31.597656 12.304688 -32.484375 12.640625 -33.328125 C 12.984375 -34.171875 13.410156 -34.632812 13.921875 -34.71875 C 14.003906 -34.71875 14.066406 -34.726562 14.109375 -34.75 C 14.148438 -34.769531 14.191406 -34.78125 14.234375 -34.78125 C 14.816406 -34.78125 15.148438 -34.453125 15.234375 -33.796875 C 15.328125 -33.148438 15.273438 -32.363281 15.078125 -31.4375 C 14.890625 -30.507812 14.660156 -29.625 14.390625 -28.78125 C 14.117188 -27.9375 13.941406 -27.320312 13.859375 -26.9375 C 12.835938 -23.53125 12.179688 -20.03125 11.890625 -16.4375 C 11.597656 -12.851562 11.484375 -9.25 11.546875 -5.625 C 11.609375 -2 11.660156 1.582031 11.703125 5.125 C 11.742188 6.46875 11.859375 7.550781 12.046875 8.375 C 12.234375 9.195312 12.304688 9.773438 12.265625 10.109375 C 12.222656 10.453125 11.820312 10.625 11.0625 10.625 C 10.601562 10.625 10.234375 10.109375 9.953125 9.078125 C 9.679688 8.046875 9.484375 6.695312 9.359375 5.03125 C 9.234375 3.363281 9.171875 1.582031 9.171875 -0.3125 C 9.171875 -2.207031 9.191406 -4.0625 9.234375 -5.875 C 9.273438 -7.695312 9.316406 -9.257812 9.359375 -10.5625 C 9.398438 -11.875 9.421875 -12.738281 9.421875 -13.15625 C 9.253906 -12.988281 9.148438 -12.882812 9.109375 -12.84375 C 9.066406 -12.800781 9.003906 -12.628906 8.921875 -12.328125 L 6.703125 -6.953125 C 6.410156 -6.328125 6.070312 -5.613281 5.6875 -4.8125 C 5.3125 -4.007812 4.835938 -3.3125 4.265625 -2.71875 C 3.703125 -2.125 3.019531 -1.828125 2.21875 -1.828125 C 1.332031 -1.828125 0.726562 -2.25 0.40625 -3.09375 C 0.09375 -3.9375 0 -5.019531 0.125 -6.34375 C 0.25 -7.675781 0.550781 -9.082031 1.03125 -10.5625 C 1.519531 -12.039062 2.132812 -13.441406 2.875 -14.765625 C 3.613281 -16.097656 4.4375 -17.1875 5.34375 -18.03125 C 6.25 -18.875 7.1875 -19.296875 8.15625 -19.296875 C 8.5 -19.296875 8.679688 -19.257812 8.703125 -19.1875 C 8.722656 -19.125 8.960938 -19.09375 9.421875 -19.09375 Z M 9.421875 -19.09375 "/></g></g></g><g fill="#8a2be2" fill-opacity="1"><g transform="translate(397.958244, 151.833813)"><g><path d="M 0 -6.390625 C 0 -7.273438 0.207031 -8.367188 0.625 -9.671875 C 1.050781 -10.984375 1.644531 -12.28125 2.40625 -13.5625 C 3.164062 -14.851562 4.039062 -15.921875 5.03125 -16.765625 C 6.019531 -17.609375 7.0625 -18.03125 8.15625 -18.03125 C 9.164062 -18.03125 9.988281 -17.734375 10.625 -17.140625 C 11.257812 -16.546875 11.640625 -15.941406 11.765625 -15.328125 C 11.890625 -14.722656 11.675781 -14.421875 11.125 -14.421875 C 10.707031 -14.421875 10.273438 -14.660156 9.828125 -15.140625 C 9.390625 -15.628906 8.875 -15.875 8.28125 -15.875 C 7.820312 -15.875 7.265625 -15.597656 6.609375 -15.046875 C 5.953125 -14.503906 5.160156 -13.429688 4.234375 -11.828125 C 3.816406 -11.148438 3.425781 -10.273438 3.0625 -9.203125 C 2.707031 -8.128906 2.53125 -7.066406 2.53125 -6.015625 C 2.613281 -6.097656 2.644531 -6.128906 2.625 -6.109375 C 2.601562 -6.085938 2.675781 -6.160156 2.84375 -6.328125 L 3.359375 -7.078125 C 3.691406 -7.585938 4.078125 -8.242188 4.515625 -9.046875 C 4.960938 -9.847656 5.414062 -10.660156 5.875 -11.484375 C 6.34375 -12.304688 6.765625 -13 7.140625 -13.5625 C 7.523438 -14.132812 7.820312 -14.421875 8.03125 -14.421875 C 8.789062 -14.421875 9.234375 -14.144531 9.359375 -13.59375 C 9.484375 -13.050781 9.535156 -12.378906 9.515625 -11.578125 C 9.492188 -10.773438 9.566406 -9.972656 9.734375 -9.171875 C 9.992188 -8.035156 10.382812 -7.203125 10.90625 -6.671875 C 11.4375 -6.140625 12.039062 -5.875 12.71875 -5.875 C 13.894531 -5.875 15.203125 -6.59375 16.640625 -8.03125 C 17.222656 -8.582031 17.640625 -9.035156 17.890625 -9.390625 C 18.148438 -9.753906 18.488281 -10.164062 18.90625 -10.625 C 19.207031 -11.050781 19.585938 -11.265625 20.046875 -11.265625 C 20.515625 -11.265625 20.71875 -10.875 20.65625 -10.09375 C 20.59375 -9.3125 19.757812 -8.140625 18.15625 -6.578125 L 16.25 -5.0625 C 15.03125 -4.21875 13.851562 -3.796875 12.71875 -3.796875 C 11.65625 -3.796875 10.734375 -4.109375 9.953125 -4.734375 C 9.179688 -5.367188 8.582031 -6.148438 8.15625 -7.078125 C 7.738281 -8.003906 7.53125 -8.910156 7.53125 -9.796875 C 7.226562 -9.585938 6.890625 -9.125 6.515625 -8.40625 C 6.140625 -7.695312 5.726562 -6.929688 5.28125 -6.109375 C 4.84375 -5.285156 4.390625 -4.566406 3.921875 -3.953125 C 3.453125 -3.335938 2.988281 -3.03125 2.53125 -3.03125 C 1.351562 -3.03125 0.632812 -3.304688 0.375 -3.859375 C 0.125 -4.410156 0 -5.253906 0 -6.390625 Z M 0 -6.390625 "/></g></g></g><g fill="#8a2be2" fill-opacity="1"><g transform="translate(416.300827, 151.833813)"><g><path d="M 20.109375 -11.578125 C 20.617188 -11.578125 20.832031 -11.363281 20.75 -10.9375 C 20.664062 -10.519531 20.265625 -10.097656 19.546875 -9.671875 L 15.25 -6.703125 C 15.070312 -6.617188 14.707031 -6.375 14.15625 -5.96875 C 13.613281 -5.570312 13.015625 -5.128906 12.359375 -4.640625 C 11.710938 -4.160156 11.15625 -3.707031 10.6875 -3.28125 C 10.226562 -2.863281 9.976562 -2.59375 9.9375 -2.46875 C 9.882812 -2.257812 9.941406 -1.859375 10.109375 -1.265625 C 10.285156 -0.671875 10.40625 0.0976562 10.46875 1.046875 C 10.53125 1.992188 10.398438 3.148438 10.078125 4.515625 C 9.765625 5.890625 9.082031 7.484375 8.03125 9.296875 C 7.351562 10.472656 6.59375 11.421875 5.75 12.140625 C 4.90625 12.859375 4.082031 13.34375 3.28125 13.59375 C 3.238281 13.675781 3.21875 13.804688 3.21875 13.984375 C 3.175781 14.359375 3.285156 14.710938 3.546875 15.046875 C 3.753906 15.222656 3.941406 15.425781 4.109375 15.65625 C 4.273438 15.882812 4.421875 16.125 4.546875 16.375 C 4.765625 16.71875 4.875 17.078125 4.875 17.453125 C 4.875 18.046875 4.515625 18.507812 3.796875 18.84375 C 3.078125 19.1875 2.488281 19.359375 2.03125 19.359375 C 1.601562 19.359375 1.226562 19.289062 0.90625 19.15625 C 0.59375 19.03125 0.3125 18.800781 0.0625 18.46875 C -0.101562 18.300781 -0.125 18.09375 0 17.84375 C 0.46875 17.84375 0.878906 17.722656 1.234375 17.484375 C 1.585938 17.253906 1.914062 16.972656 2.21875 16.640625 C 2.425781 16.378906 2.425781 16.125 2.21875 15.875 L 1.453125 14.921875 C 1.203125 14.628906 1.035156 14.207031 0.953125 13.65625 C -0.441406 13.238281 -1.140625 12.144531 -1.140625 10.375 C -1.140625 8.9375 -0.789062 7.539062 -0.09375 6.1875 C 0.601562 4.84375 1.4375 3.601562 2.40625 2.46875 C 3.375 1.332031 4.269531 0.351562 5.09375 -0.46875 C 5.914062 -1.289062 6.453125 -1.894531 6.703125 -2.28125 C 6.203125 -3.164062 5.59375 -3.929688 4.875 -4.578125 C 4.15625 -5.234375 3.445312 -5.832031 2.75 -6.375 C 2.050781 -6.925781 1.46875 -7.507812 1 -8.125 C 0.539062 -8.738281 0.3125 -9.46875 0.3125 -10.3125 C 0.3125 -11.40625 0.609375 -12.382812 1.203125 -13.25 C 1.796875 -14.113281 2.5 -14.804688 3.3125 -15.328125 C 4.132812 -15.859375 4.84375 -16.125 5.4375 -16.125 C 5.90625 -16.125 6.253906 -15.953125 6.484375 -15.609375 C 6.710938 -15.273438 6.722656 -14.710938 6.515625 -13.921875 C 6.003906 -13.785156 5.644531 -13.707031 5.4375 -13.6875 C 5.226562 -13.664062 5.0625 -13.601562 4.9375 -13.5 C 4.8125 -13.394531 4.578125 -13.15625 4.234375 -12.78125 C 3.390625 -11.851562 3 -11.101562 3.0625 -10.53125 C 3.125 -9.957031 3.460938 -9.425781 4.078125 -8.9375 C 4.691406 -8.457031 5.453125 -7.859375 6.359375 -7.140625 C 7.265625 -6.429688 8.117188 -5.460938 8.921875 -4.234375 C 9.847656 -4.867188 10.796875 -5.609375 11.765625 -6.453125 L 17.640625 -10.5625 C 18.191406 -10.9375 18.664062 -11.195312 19.0625 -11.34375 C 19.46875 -11.5 19.816406 -11.578125 20.109375 -11.578125 Z M 7.140625 4.421875 C 7.359375 3.710938 7.476562 2.988281 7.5 2.25 C 7.519531 1.507812 7.53125 0.695312 7.53125 -0.1875 C 7.019531 0.101562 6.4375 0.617188 5.78125 1.359375 C 5.132812 2.097656 4.617188 2.695312 4.234375 3.15625 C 3.472656 4.082031 2.722656 5.195312 1.984375 6.5 C 1.253906 7.8125 0.890625 9.101562 0.890625 10.375 C 0.890625 11.257812 1.160156 11.703125 1.703125 11.703125 C 2.003906 11.703125 2.320312 11.59375 2.65625 11.375 C 2.988281 11.164062 3.265625 10.976562 3.484375 10.8125 C 4.328125 10.175781 5.070312 9.21875 5.71875 7.9375 C 6.375 6.65625 6.847656 5.484375 7.140625 4.421875 Z M 7.140625 4.421875 "/></g></g></g></svg>